<svg xmlns="http://www.w3.org/2000/svg" data-name="Layer 1" viewBox="0 0 100 125" x="0px" y="0px"><path d="m50,5.14C25.26,5.14,5.14,25.26,5.14,50s20.13,44.86,44.86,44.86,44.86-20.13,44.86-44.86S74.74,5.14,50,5.14Zm-1.5,81.69c-19.14-.77-34.56-16.19-35.33-35.33h16.15c.74,10.24,8.93,18.44,19.17,19.17v16.15Zm0-19.15c-8.59-.72-15.45-7.58-16.17-16.17h16.17v16.17Zm0-19.17h-16.17c.72-8.59,7.58-15.45,16.17-16.17v16.17Zm0-19.17c-10.24.74-18.44,8.93-19.17,19.17H13.17c.77-19.13,16.19-34.55,35.33-35.33v16.15Zm3-16.15c19.13.77,34.55,16.19,35.33,35.33h-16.15c-.74-10.24-8.93-18.43-19.17-19.17V13.17Zm0,19.15c8.59.72,15.45,7.58,16.17,16.17h-16.17v-16.17Zm0,19.17h16.17c-.72,8.59-7.58,15.45-16.17,16.17v-16.17Zm0,35.33v-16.15c10.24-.74,18.44-8.93,19.17-19.17h16.15c-.77,19.14-16.19,34.56-35.33,35.33Z"/><text x="0" y="115" fill="#000000" font-size="5px" font-weight="bold" font-family="'Helvetica Neue', Helvetica, Arial-Unicode, Arial, Sans-serif">Created by Jerry Cannary</text><text x="0" y="120" fill="#000000" font-size="5px" font-weight="bold" font-family="'Helvetica Neue', Helvetica, Arial-Unicode, Arial, Sans-serif">from the Noun Project</text></svg>